<svg xmlns="http://www.w3.org/2000/svg" version="1.1" xmlns:xlink="http://www.w3.org/1999/xlink" width="200" height="200"><svg t="1766833239480" class="icon" viewBox="0 0 1024 1024" version="1.1" xmlns="http://www.w3.org/2000/svg" p-id="24569" width="200" height="200"><path d="M208.979592 1024h606.040816c115.461224 0 208.979592-93.518367 208.979592-208.979592V208.979592C1024 93.518367 930.481633 0 815.020408 0H208.979592C93.518367 0 0 93.518367 0 208.979592v606.040816c0 115.461224 93.518367 208.979592 208.979592 208.979592z" fill="#00005B" p-id="24570"></path><path d="M128.731429 286.406531c0.10449-1.358367 0.731429-2.507755 1.776326-3.239184 0.940408-0.835918 2.298776-1.149388 3.552653-0.940408h122.671021c3.343673-0.522449 6.478367 1.567347 7.314285 4.80653 3.134694 12.120816 6.896327 26.644898 11.389388 43.676735 4.388571 16.927347 9.195102 35.63102 14.315102 56.11102l15.673469 62.798368c5.32898 21.420408 10.553469 42.213878 15.67347 62.484898 5.12 20.27102 9.508571 38.870204 13.061224 55.797551 3.552653 17.031837 6.373878 31.033469 8.672653 42.213877h0.626939c1.776327-9.717551 4.91102-22.778776 9.299592-39.079183 4.493061-16.300408 9.613061-34.481633 15.36-54.752653 5.746939-20.27102 11.702857-41.06449 17.658776-62.484898 6.060408-21.315918 11.911837-42.527347 17.763265-63.425306 5.746939-21.002449 11.180408-40.437551 16.300408-58.305307s9.195102-32.914286 12.329796-45.035102c0.417959-2.821224 3.030204-5.01551 5.955918-4.80653h119.431837c1.462857-0.20898 2.925714 0.20898 4.075102 1.149388 1.149388 0.835918 1.880816 2.194286 1.880816 3.657142l16.091429 445.85796c0.417959 1.671837 0.10449 3.343673-1.044898 4.597551-1.149388 1.149388-2.716735 1.776327-4.284082 1.776326h-86.72653c-1.253878 0-2.403265-0.417959-3.343674-1.044898a4.597551 4.597551 0 0 1-1.358367-3.866122c0-23.719184-0.10449-48.587755-0.313469-74.710204-0.20898-26.017959-0.522449-52.140408-1.044898-78.471837-0.417959-26.226939-0.417959-51.513469 0-75.755102 0.522449-24.137143 0.731429-46.497959 0.731428-66.977959 0-20.37551 0.10449-38.243265 0.31347-53.289796 0.20898-15.15102 0.313469-26.435918 0.313469-33.854694h-0.626939l-10.657959 45.662041c-4.493061 18.808163-9.717551 40.019592-15.673469 63.529796-6.060408 23.510204-12.538776 47.751837-19.435102 72.933877-6.896327 25.077551-13.479184 49.946122-19.957551 74.605714-6.478367 24.659592-12.643265 47.647347-18.703674 69.067756-5.955918 21.420408-10.971429 40.228571-14.942041 56.528979a7.523265 7.523265 0 0 1-7.418775 5.642449h-75.337143a7.178449 7.178449 0 0 1-7.941225-5.642449c-4.075102-16.300408-8.568163-35.108571-13.688163-56.528979-5.12-21.420408-10.34449-43.676735-15.673469-66.97796-5.32898-23.196735-11.075918-47.124898-17.031837-71.47102-6.060408-24.450612-11.702857-48.065306-17.031837-70.844082-5.32898-22.778776-10.13551-44.199184-14.315102-64.156734-4.284082-20.062041-8.150204-37.720816-11.702857-53.080817h-1.358367v55.170613c0 21.315918-0.313469 44.930612-0.940408 70.739591-0.731429 25.80898-1.358367 52.871837-1.985307 80.979592-0.731429 28.107755-1.462857 57.260408-2.403265 87.24898-0.835918 29.988571-1.985306 59.663673-3.343673 88.920816 0 3.761633-1.776327 5.642449-5.32898 5.642449h-77.322449c-1.567347 0-3.030204-0.313469-4.388571-1.044898-1.044898-0.731429-1.358367-2.507755-0.940408-5.328979z m710.008163 300.512653H700.499592c1.671837 13.061224 6.269388 25.6 13.270204 36.675918a72.411429 72.411429 0 0 0 31.973877 26.122449c14.315102 6.582857 32.914286 9.822041 55.797551 9.822041 15.15102 0 30.406531-1.253878 45.348572-3.866123 14.106122-2.507755 27.898776-6.582857 41.06449-12.225306 2.298776-1.880816 3.448163-0.731429 3.448163 3.448164v66.35102c0.10449 1.776327-0.20898 3.552653-1.044898 5.22449-0.835918 1.253878-1.880816 2.298776-3.134694 3.134694-14.524082 6.791837-29.884082 11.911837-45.662041 15.04653-20.37551 3.761633-41.06449 5.537959-61.753469 5.22449-33.227755 0-61.126531-5.12-83.591837-15.36a149.629388 149.629388 0 0 1-54.752653-41.16898c-13.792653-16.822857-24.032653-36.153469-30.197551-56.842449-6.060408-20.58449-9.090612-41.795918-9.090612-63.216326-0.10449-23.301224 3.552653-46.497959 10.866939-68.754286a178.155102 178.155102 0 0 1 32.705306-59.245714c14.315102-17.345306 32.287347-31.346939 52.662857-41.16898 22.778776-10.553469 47.751837-15.673469 72.933877-15.04653 23.301224-0.522449 46.497959 3.970612 67.813878 13.270204 17.972245 8.150204 33.750204 20.48 45.97551 35.94449 11.493878 14.733061 20.27102 31.451429 25.91347 49.214693 5.537959 17.136327 8.463673 35.004082 8.463673 52.976327 0 10.24-0.313469 19.539592-1.044898 27.898776-0.731429 8.463673-1.253878 14.419592-1.776326 18.181224a6.164898 6.164898 0 0 1-6.269388 5.537959c-2.821224 0-7.627755 0.417959-14.419592 1.149388-6.791837 0.626939-15.25551 1.149388-25.286531 1.358367-10.03102 0.20898-20.68898 0.313469-31.973877 0.31347z m-46.28898-67.709388c11.180408 0 19.539592-0.10449 24.868572-0.313469 3.448163 0 6.896327-0.313469 10.24-1.044898v-4.179592c-0.20898-5.433469-1.149388-10.866939-2.821225-16.091429a57.218612 57.218612 0 0 0-56.842449-39.706122 61.105633 61.105633 0 0 0-57.991837 32.809796c-4.702041 8.881633-7.941224 18.599184-9.404081 28.525714z" fill="#9999FF" p-id="24571"></path></svg><style>@media (prefers-color-scheme: light) { :root { filter: none; } }
@media (prefers-color-scheme: dark) { :root { filter: none; } }
</style></svg>